<svg width="74" height="82" viewBox="0 0 74 82" fill="none" xmlns="http://www.w3.org/2000/svg">
<path d="M73.088 28.64C73.068 28.5 73.0479 28.2399 72.9879 27.9799C72.1379 24.2799 70.7479 20.79 68.7979 17.53C67.2779 14.98 65.4579 12.66 63.3679 10.56C62.5679 9.76001 61.598 9.51999 60.528 9.91999C59.518 10.3 58.9679 11.07 58.8579 12.13C58.7579 13.07 59.198 13.79 59.838 14.45C62.788 17.44 65.048 20.88 66.528 24.8C67.108 26.32 67.4879 27.9199 67.9779 29.4799C68.3879 30.7899 69.568 31.5599 70.898 31.3699C72.158 31.1899 73.098 30.07 73.088 28.64Z" fill="#BCB8B8"/>
<path d="M2.70808 31.3897C4.04808 31.3897 4.99803 30.6097 5.34803 29.1197C6.67803 23.4297 9.38809 18.5198 13.4681 14.3398C13.8181 13.9798 14.1181 13.4897 14.2681 13.0097C14.6181 11.8597 14.0881 10.6797 13.0681 10.0997C12.0081 9.48971 10.7481 9.67973 9.81806 10.6197C6.46806 13.9897 3.82808 17.8497 2.08808 22.2697C1.35808 24.1297 0.788075 26.0497 0.268075 27.9797C-0.231925 29.8297 0.948087 31.3797 2.71809 31.3797L2.70808 31.3897Z" fill="#BCB8B8"/>
<path d="M35.188 81.11C34.658 80.98 34.1179 80.8701 33.5979 80.7101C28.8979 79.2601 26.008 76.1601 25.028 71.3101C24.988 71.1101 24.928 70.9 24.868 70.65C24.538 70.65 24.2279 70.65 23.9179 70.65C18.9279 70.65 13.948 70.68 8.95798 70.64C5.25798 70.61 1.93794 68.23 0.607941 64.76C-0.722059 61.28 0.167929 57.43 2.90793 54.9C4.63793 53.3 6.69795 52.4701 9.05795 52.3301C10.228 52.2601 10.4779 51.9801 10.4779 50.8201C10.4779 45.6701 10.378 40.53 10.498 35.38C10.768 24.11 16.1479 16.12 26.2979 11.3C26.7879 11.07 27.4779 10.9701 27.7379 10.5901C27.9679 10.2401 27.738 9.58005 27.718 9.05005C27.638 4.68005 30.778 0.900024 35.078 0.150024C35.228 0.120024 35.368 0.05 35.518 0H37.7379C39.0279 0.51 40.448 0.810059 41.578 1.56006C44.788 3.70006 45.9379 6.84005 45.4179 10.6801C45.5779 10.7601 45.758 10.8601 45.938 10.9401C55.688 15.2301 61.2779 22.6601 62.6079 33.2201C62.8179 34.9101 62.758 36.64 62.768 38.36C62.788 42.42 62.768 46.49 62.768 50.55C62.768 52.06 62.908 52.21 64.398 52.35C68.778 52.74 72.278 55.69 73.058 59.67C74.168 65.34 69.928 70.59 64.148 70.63C59.188 70.66 54.228 70.63 49.268 70.63C48.978 70.63 48.6879 70.63 48.3579 70.63C48.2779 71.05 48.208 71.4401 48.128 71.8201C47.038 76.6401 43.2379 80.1901 38.3479 80.9601C38.1979 80.9801 38.048 81.05 37.898 81.1H35.208L35.188 81.11ZM36.648 65.42C45.698 65.42 54.748 65.42 63.808 65.42C66.118 65.42 67.8479 63.9101 67.9879 61.8401C68.1379 59.6301 66.6479 57.91 64.2879 57.6C63.7179 57.52 63.118 57.54 62.558 57.42C59.558 56.79 57.5479 54.29 57.5379 51.17C57.5179 46.16 57.5179 41.14 57.5379 36.13C57.5379 33.35 57.068 30.6701 56.078 28.0901C51.568 16.3301 38.2779 10.98 27.2279 16.67C19.8779 20.46 15.9779 26.7 15.7379 35C15.5879 40.41 15.718 45.82 15.698 51.23C15.688 54.33 13.618 56.8501 10.628 57.4401C9.95796 57.5701 9.25798 57.55 8.58798 57.66C5.82798 58.14 4.36798 61.1201 5.76798 63.4601C6.59798 64.8501 7.88796 65.43 9.49796 65.42C18.548 65.42 27.5979 65.42 36.6579 65.42H36.648ZM30.318 70.6801C30.478 73.4701 33.6979 75.99 36.9079 75.87C39.8579 75.76 42.908 73.1201 42.888 70.6801H30.318ZM40.2279 9.30005C40.4279 7.84005 39.728 6.43998 38.438 5.72998C37.088 4.97998 35.4679 5.12008 34.2879 6.08008C33.2179 6.95008 32.728 8.33005 33.058 9.30005H40.2279Z" fill="#BCB8B8"/>
<path d="M73.088 28.64C73.098 30.07 72.158 31.1899 70.898 31.3699C69.568 31.5599 68.3879 30.7999 67.9779 29.4799C67.4979 27.9199 67.108 26.33 66.528 24.8C65.048 20.88 62.788 17.43 59.838 14.45C59.198 13.8 58.7579 13.07 58.8579 12.13C58.9679 11.07 59.518 10.29 60.528 9.91999C61.588 9.51999 62.5579 9.76001 63.3679 10.56C65.4679 12.66 67.2779 14.98 68.7979 17.53C70.7479 20.79 72.1279 24.2799 72.9879 27.9799C73.0479 28.2399 73.068 28.5 73.088 28.64Z" fill="#BCB8B8"/>
<path d="M2.70801 31.39C0.938013 31.39 -0.251999 29.83 0.258001 27.99C0.778001 26.06 1.34801 24.13 2.07801 22.28C3.81801 17.86 6.45799 14 9.80799 10.63C10.738 9.69001 11.998 9.50999 13.058 10.11C14.078 10.69 14.608 11.87 14.258 13.02C14.108 13.5 13.818 13.99 13.458 14.35C9.37801 18.52 6.66802 23.44 5.33802 29.13C4.98802 30.61 4.038 31.4 2.698 31.4L2.70801 31.39Z" fill="#BCB8B8"/>
</svg>
