<svg width="71" height="77" viewBox="0 0 71 77" fill="none" xmlns="http://www.w3.org/2000/svg">
<path d="M14.7464 76.7427H12.9464C12.7164 76.6627 12.4864 76.5827 12.2464 76.5127C10.1764 75.9227 9.17638 74.6127 9.17638 72.4827C9.17638 71.4327 9.17638 70.3826 9.17638 69.3326V67.9626C8.80638 67.9626 8.56638 67.9626 8.31638 67.9626C7.46638 67.9826 6.61637 67.9927 5.76637 68.0127C4.28637 68.0527 3.18638 66.8827 3.05638 65.0127C2.86638 62.2927 2.64638 59.5827 2.61638 56.8627C2.53638 49.3427 2.54638 41.8226 2.53638 34.3126C2.53638 33.9126 2.43638 33.7027 2.06638 33.5027C0.786376 32.8027 0.0463826 31.7127 0.0263826 30.2427C-0.00361741 27.6427 -0.0136174 25.0426 0.0263826 22.4526C0.0563826 20.7726 1.16638 19.3526 2.77638 18.9426C3.34638 18.7926 3.43638 18.5226 3.50638 18.0326C3.92638 15.2226 4.32638 12.4027 4.85638 9.61266C5.15638 8.02266 5.60638 6.42266 6.81638 5.23266C8.12638 3.94266 9.80637 3.26262 11.5164 2.69262C15.8564 1.23262 20.3764 0.68264 24.9064 0.34264C33.3464 -0.28736 41.7864 -0.0773647 50.1664 1.21264C53.6464 1.75264 57.0864 2.45266 60.3464 3.86266C62.5764 4.83266 64.1264 6.33264 64.8664 8.72264C65.8164 11.7726 66.2164 14.9126 66.5964 18.0526C66.6564 18.5326 66.7564 18.7826 67.2964 18.9026C68.9964 19.2726 70.1864 20.6826 70.2164 22.4326C70.2664 25.0526 70.2564 27.6826 70.2164 30.3026C70.1964 31.7726 69.4364 32.8727 68.1364 33.5227C67.6464 33.7627 67.5264 34.0326 67.5264 34.5326C67.5264 44.8726 67.5064 55.2126 67.4964 65.5626C67.4964 67.0326 66.9164 67.7126 65.4664 67.9226C64.8764 68.0126 64.2764 67.9827 63.6764 68.0027C63.3164 68.0127 62.9464 68.0027 62.5264 68.0027C62.5264 69.6127 62.5164 71.1326 62.5264 72.6526C62.5464 74.4126 61.6864 75.5727 60.1264 76.2727C59.7064 76.4627 59.2564 76.6027 58.8164 76.7627H56.8664C56.6364 76.6727 56.4164 76.5827 56.1864 76.5127C54.1664 75.9027 53.1764 74.5927 53.1664 72.5027C53.1664 71.4327 53.1664 70.3526 53.1664 69.2826V68.0227H18.4764C18.4764 69.6327 18.4564 71.2027 18.4764 72.7727C18.4964 74.2127 17.8564 75.2826 16.6364 75.9726C16.0364 76.3126 15.3664 76.5027 14.7164 76.7627L14.7464 76.7427ZM58.4764 15.3526H11.2164V40.1026H58.4764V15.3526ZM52.3464 7.11266H17.3764V12.3326H52.3464V7.11266ZM17.8264 51.9927C15.1064 51.9927 12.8764 54.2126 12.8564 56.9426C12.8364 59.6426 15.0864 61.9026 17.8064 61.9226C20.5564 61.9426 22.8464 59.6526 22.8164 56.9326C22.7864 54.2026 20.5564 51.9927 17.8264 51.9927ZM52.1864 61.9126C54.9064 61.9126 57.1464 59.6826 57.1664 56.9626C57.1864 54.2626 54.9464 52.0027 52.2164 51.9827C49.4664 51.9627 47.1864 54.2326 47.2064 56.9626C47.2264 59.6826 49.4664 61.9026 52.1864 61.9026V61.9126Z" fill="#BCB8B8"/>
</svg>
