<svg width="80" height="80" viewBox="0 0 80 80" fill="none" xmlns="http://www.w3.org/2000/svg">
<path d="M65.18 79.26H49.7C48.25 78.59 47.85 77.42 47.86 75.88C47.91 69.26 47.88 62.63 47.88 56.01C47.88 54.61 47.77 54.5 46.4 54.5C41.89 54.5 37.38 54.5 32.87 54.5C31.5 54.5 31.39 54.61 31.39 56.01C31.39 62.66 31.36 69.31 31.41 75.96C31.42 77.48 30.98 78.61 29.57 79.27H14.09C10.82 78.1 9.91 76.7999 9.91 73.2899V42.9199C7.92 42.9199 6.04 42.9199 4.16 42.9199C2.52 42.9199 1.3 42.16 0.489998 40.75C0.289998 40.4 0.16 40.01 0 39.64V38.09C0.33 36.94 1.02 36.05 1.88 35.23C13.66 23.96 25.43 12.67 37.21 1.40002C37.76 0.880024 38.41 0.47 39.02 0H40.26C40.85 0.44 41.49 0.829966 42.01 1.33997C53.7 12.52 65.37 23.72 77.06 34.9C78.02 35.82 78.91 36.76 79.27 38.09V39.64C79.21 39.75 79.15 39.85 79.11 39.97C78.46 41.86 77.05 42.8999 75.04 42.9299C73.98 42.9499 72.92 42.9299 71.87 42.9299C71.05 42.9299 70.24 42.9299 69.37 42.9299V43.96C69.37 54 69.37 64.0299 69.37 74.0699C69.37 76.6699 67.97 78.47 65.47 79.15C65.37 79.18 65.28 79.23 65.19 79.27L65.18 79.26Z" fill="url(#paint0_linear_2025_509)"/>
<defs>
<linearGradient id="paint0_linear_2025_509" x1="0" y1="39.62" x2="79.27" y2="39.62" gradientUnits="userSpaceOnUse">
<stop offset="0.27" stop-color="#0893D4"/>
<stop offset="1" stop-color="#3552D0"/>
</linearGradient>
</defs>
</svg>
