<svg width="88" height="116" viewBox="0 0 88 116" fill="none" xmlns="http://www.w3.org/2000/svg">
<path d="M11.72 109.47C11.62 107.59 11.5 105.33 11.52 103.65H11.46C11 105.23 10.44 106.91 9.76001 108.77L7.38 115.31H6.06L3.88 108.89C3.24 106.99 2.70001 105.25 2.32001 103.65H2.28C2.24 105.33 2.14 107.59 2.02 109.61L1.66 115.39H0L0.940002 101.91H3.16L5.46001 108.43C6.02001 110.09 6.48001 111.57 6.82001 112.97H6.88C7.22 111.61 7.7 110.13 8.3 108.43L10.7 101.91H12.92L13.76 115.39H12.06L11.72 109.47Z" fill="#FDA802"/>
<path d="M18.4197 111.15L17.0197 115.39H15.2197L19.7997 101.91H21.8997L26.4997 115.39H24.6397L23.1997 111.15H18.4197ZM22.8397 109.79L21.5197 105.91C21.2197 105.03 21.0197 104.23 20.8197 103.45H20.7797C20.5797 104.25 20.3597 105.07 20.0997 105.89L18.7797 109.79H22.8397Z" fill="#FDA802"/>
<path d="M28.4697 115.39V101.91H30.3697L34.6897 108.73C35.6897 110.31 36.4697 111.73 37.1097 113.11L37.1497 113.09C36.9897 111.29 36.9497 109.65 36.9497 107.55V101.91H38.5897V115.39H36.8297L32.5497 108.55C31.6097 107.05 30.7097 105.51 30.0297 104.05L29.9697 104.07C30.0697 105.77 30.1097 107.39 30.1097 109.63V115.39H28.4697ZM31.1497 101.09C31.1097 99.87 31.6297 99.0499 32.5097 99.0499C32.9497 99.0499 33.2697 99.23 33.6897 99.45C34.0097 99.63 34.3297 99.8099 34.6497 99.8099C34.9497 99.8099 35.1297 99.6699 35.1897 99.0299H36.1097C36.1297 100.29 35.6897 100.97 34.7697 100.97C34.3497 100.97 33.9897 100.81 33.5497 100.59C33.1697 100.39 32.8897 100.21 32.6097 100.21C32.2897 100.21 32.1297 100.55 32.0897 101.09H31.1497Z" fill="#FDA802"/>
<path d="M43.8103 111.15L42.4104 115.39H40.6104L45.1904 101.91H47.2904L51.8904 115.39H50.0303L48.5904 111.15H43.8103ZM48.2304 109.79L46.9104 105.91C46.6104 105.03 46.4104 104.23 46.2104 103.45H46.1703C45.9703 104.25 45.7504 105.07 45.4904 105.89L44.1703 109.79H48.2304Z" fill="#FDA802"/>
<path d="M53.8701 115.39V101.91H55.7701L60.0901 108.73C61.0901 110.31 61.8701 111.73 62.5101 113.11L62.5501 113.09C62.3901 111.29 62.3501 109.65 62.3501 107.55V101.91H63.9901V115.39H62.2301L57.9501 108.55C57.0101 107.05 56.1101 105.51 55.4301 104.05L55.3701 104.07C55.4701 105.77 55.5101 107.39 55.5101 109.63V115.39H53.8701Z" fill="#FDA802"/>
<path d="M69.2098 111.15L67.8098 115.39H66.0098L70.5898 101.91H72.6898L77.2898 115.39H75.4298L73.9898 111.15H69.2098ZM73.6298 109.79L72.3098 105.91C72.0098 105.03 71.8098 104.23 71.6098 103.45H71.5698C71.3698 104.25 71.1498 105.07 70.8898 105.89L69.5698 109.79H73.6298Z" fill="#FDA802"/>
<path d="M19.0205 43.45C19.0505 29.74 30.2605 18.5901 43.9705 18.6401C57.6405 18.6901 68.7505 29.87 68.7305 43.55C68.7005 57.26 57.4905 68.41 43.7805 68.36C30.1105 68.31 19.0005 57.13 19.0205 43.45ZM43.9005 24.86C33.6205 24.85 25.2405 33.21 25.2305 43.48C25.2205 53.76 33.5805 62.1399 43.8405 62.1499C54.1205 62.1599 62.5005 53.8 62.5105 43.53C62.5205 33.25 54.1705 24.87 43.9005 24.86Z" fill="#FDA802"/>
<path d="M46.9803 6.17993C46.9803 7.21993 47.0003 8.24992 46.9803 9.28992C46.9403 11.0899 45.5603 12.4499 43.8403 12.4299C42.1503 12.4099 40.8103 11.0599 40.7803 9.29993C40.7503 7.22993 40.7503 5.15997 40.7803 3.08997C40.8103 1.33997 42.1703 0.01 43.8703 0C45.5603 0 46.9303 1.32996 46.9803 3.07996C47.0103 4.10996 46.9803 5.14994 46.9803 6.18994V6.17993Z" fill="#FDA802"/>
<path d="M6.6901 40.4001C7.6901 40.4001 8.7001 40.3801 9.7001 40.4001C11.4501 40.4401 12.7901 41.7901 12.8001 43.4801C12.8001 45.1701 11.4801 46.5601 9.74011 46.6001C7.64011 46.6401 5.53011 46.6401 3.43011 46.6001C1.69011 46.5701 0.360105 45.1601 0.380105 43.4701C0.400105 41.7701 1.73011 40.4401 3.49011 40.4001C4.56011 40.3701 5.6201 40.4001 6.6901 40.4001Z" fill="#FDA802"/>
<path d="M81.1498 40.4C82.1898 40.4 83.2198 40.38 84.2598 40.4C86.0098 40.44 87.3598 41.7801 87.3798 43.4701C87.3998 45.2001 86.0398 46.5801 84.2398 46.6101C82.1998 46.6401 80.1598 46.6401 78.1298 46.6101C76.3198 46.5901 74.9598 45.2201 74.9698 43.4901C74.9698 41.7601 76.3298 40.43 78.1598 40.4C79.1598 40.38 80.1698 40.4 81.1698 40.4H81.1498Z" fill="#FDA802"/>
<path d="M40.7702 80.74C40.7702 79.7 40.7402 78.6701 40.7702 77.6301C40.8202 75.8801 42.1902 74.56 43.8902 74.57C45.5402 74.58 46.9202 75.89 46.9602 77.58C47.0102 79.71 47.0102 81.85 46.9602 83.99C46.9202 85.68 45.5402 86.9901 43.8902 87.0001C42.2002 87.0101 40.8202 85.68 40.7702 83.94C40.7402 82.87 40.7702 81.8 40.7702 80.74Z" fill="#FDA802"/>
<path d="M12.1904 15.3001C12.2604 13.6301 12.8604 12.6702 14.0104 12.1402C15.1604 11.6002 16.3404 11.7101 17.2704 12.5701C18.7004 13.8801 20.0704 15.2601 21.3904 16.6801C22.4804 17.8601 22.3504 19.6801 21.2304 20.8201C20.0804 21.9901 18.2304 22.1202 17.0204 21.0002C15.6204 19.7102 14.2604 18.3601 12.9904 16.9401C12.5304 16.4301 12.3604 15.6501 12.2004 15.3001H12.1904Z" fill="#FDA802"/>
<path d="M75.5602 15.3998C75.3702 15.7598 75.1101 16.5499 74.6001 17.1199C73.4401 18.4199 72.1702 19.6299 70.9102 20.8399C69.6202 22.0699 67.7601 22.0499 66.5501 20.8399C65.3301 19.6299 65.2901 17.7599 66.5201 16.4799C67.7501 15.1899 69.0101 13.9399 70.2901 12.7099C71.2701 11.7699 72.4601 11.5599 73.7001 12.1199C74.9001 12.6499 75.5002 13.6398 75.5602 15.3998Z" fill="#FDA802"/>
<path d="M12.2002 71.61C12.3802 71.26 12.6102 70.4899 13.0902 69.9499C14.2802 68.6299 15.5602 67.3899 16.8502 66.1599C18.1302 64.9299 20.0002 64.9699 21.2102 66.1799C22.4202 67.3899 22.4502 69.2599 21.2202 70.5399C19.9902 71.8299 18.7302 73.0899 17.4502 74.3099C16.4702 75.2499 15.2802 75.45 14.0402 74.89C12.8502 74.34 12.2502 73.36 12.2002 71.62V71.61Z" fill="#FDA802"/>
<path d="M75.56 71.6699C75.5 73.3199 74.94 74.29 73.79 74.85C72.6 75.43 71.41 75.3199 70.45 74.4299C69.05 73.1399 67.7 71.79 66.4 70.39C65.27 69.17 65.39 67.3299 66.55 66.1799C67.71 65.0299 69.54 64.9199 70.76 66.0499C72.13 67.3299 73.47 68.6499 74.73 70.0399C75.2 70.5599 75.39 71.3199 75.56 71.6799V71.6699Z" fill="#FDA802"/>
</svg>
