<svg width="118" height="101" viewBox="0 0 118 101" fill="none" xmlns="http://www.w3.org/2000/svg">
<path d="M14.8001 94.33C14.7001 92.45 14.5801 90.19 14.6001 88.51H14.5401C14.0801 90.09 13.5201 91.77 12.8401 93.63L10.4601 100.17H9.14011L6.96008 93.75C6.32008 91.85 5.78009 90.11 5.40009 88.51H5.36011C5.32011 90.19 5.2201 92.45 5.1001 94.47L4.74008 100.25H3.08008L4.02008 86.77H6.24008L8.5401 93.29C9.1001 94.95 9.56009 96.43 9.90009 97.83H9.96008C10.3001 96.47 10.7801 94.99 11.3801 93.29L13.7801 86.77H16.0001L16.8401 100.25H15.1401L14.8001 94.33Z" fill="black"/>
<path d="M26.5005 93.9301H21.2605V98.79H27.1005V100.25H19.5205V86.77H26.8005V88.23H21.2605V92.49H26.5005V93.9301Z" fill="black"/>
<path d="M29.3604 86.9501C30.4204 86.7901 31.6803 86.67 33.0603 86.67C35.5603 86.67 37.3403 87.25 38.5203 88.35C39.7203 89.45 40.4203 91.0101 40.4203 93.1901C40.4203 95.3701 39.7403 97.1901 38.4803 98.4301C37.2203 99.6901 35.1403 100.37 32.5203 100.37C31.2803 100.37 30.2404 100.31 29.3604 100.21V86.9501ZM31.1003 98.87C31.5403 98.95 32.1804 98.97 32.8604 98.97C36.5804 98.97 38.6003 96.89 38.6003 93.25C38.6203 90.07 36.8204 88.05 33.1404 88.05C32.2404 88.05 31.5603 88.13 31.1003 88.23V98.87Z" fill="black"/>
<path d="M44.4197 86.77V100.25H42.6797V86.77H44.4197Z" fill="black"/>
<path d="M58.9802 93.37C58.9802 98.01 56.1602 100.47 52.7202 100.47C49.2802 100.47 46.6602 97.71 46.6602 93.63C46.6602 89.35 49.3202 86.55 52.9202 86.55C56.5202 86.55 58.9802 89.37 58.9802 93.37ZM48.5201 93.59C48.5201 96.47 50.0802 99.05 52.8202 99.05C55.5602 99.05 57.1402 96.5101 57.1402 93.4501C57.1402 90.7701 55.7401 87.97 52.8401 87.97C49.9401 87.97 48.5201 90.63 48.5201 93.59Z" fill="black"/>
<path d="M65.4805 86.9501C66.5405 86.7901 67.8005 86.67 69.1805 86.67C71.6805 86.67 73.4605 87.25 74.6405 88.35C75.8405 89.45 76.5405 91.0101 76.5405 93.1901C76.5405 95.3701 75.8605 97.1901 74.6005 98.4301C73.3405 99.6901 71.2605 100.37 68.6405 100.37C67.4005 100.37 66.3605 100.31 65.4805 100.21V86.9501ZM67.2205 98.87C67.6605 98.95 68.3005 98.97 68.9805 98.97C72.7005 98.97 74.7205 96.89 74.7205 93.25C74.7405 90.07 72.9405 88.05 69.2605 88.05C68.3605 88.05 67.6805 88.13 67.2205 88.23V98.87Z" fill="black"/>
<path d="M82.6001 83.71L80.0401 86.05H78.6201L80.4601 83.71H82.6001ZM80.5401 86.77V100.25H78.8001V86.77H80.5401Z" fill="black"/>
<path d="M85.7606 96.01L84.3606 100.25H82.5605L87.1406 86.77H89.2405L93.8405 100.25H91.9806L90.5406 96.01H85.7606ZM90.1805 94.65L88.8606 90.77C88.5606 89.89 88.3606 89.0901 88.1606 88.3101H88.1205C87.9205 89.1101 87.7006 89.93 87.4406 90.75L86.1205 94.65H90.1805Z" fill="black"/>
<path d="M0.0100098 57.53C0.95001 54.85 2.89001 53.8301 5.67001 53.9501C8.30001 54.0601 10.93 53.93 13.56 54C15.71 54.05 17.34 55.37 17.86 57.3C18.36 59.18 17.68 61.1901 16.02 62.1801C15.27 62.6301 14.32 62.94 13.45 62.96C10.52 63.06 7.58001 63 4.64001 62.99C2.27001 62.99 0.91 61.59 0 59.59V57.53H0.0100098Z" fill="#FDA802"/>
<path d="M117.16 59.36C116.27 62.07 114.35 63.12 111.57 63.02C108.91 62.92 106.24 63.04 103.57 62.98C101.23 62.92 99.4696 61.26 99.1596 58.97C98.8896 56.97 100.18 54.9 102.17 54.26C102.81 54.06 103.51 54 104.19 53.99C106.63 53.96 109.07 54.0601 111.5 53.9501C114.28 53.8301 116.21 54.85 117.15 57.53V59.36H117.16Z" fill="#FDA802"/>
<path d="M58.5299 62.9899C49.7999 62.9899 41.0699 62.9899 32.3299 62.9899C28.7199 62.9899 26.9499 61.1599 27.0499 57.5299C27.4499 42.3899 38.9999 29.4699 54.0299 27.3499C71.5999 24.8699 87.5899 37 89.8799 54.57C90.0299 55.74 90.0999 56.9199 90.1299 58.0999C90.1899 61.0399 88.2699 62.9799 85.3099 62.9899C80.0499 63.0099 74.7899 62.9899 69.5199 62.9899H58.5399H58.5299ZM36.6499 53.8899H80.5099C79.2399 45.5699 70.9199 35.9299 58.4099 35.9999C46.4299 36.0599 37.9499 45.3599 36.6499 53.8899Z" fill="#FDA802"/>
<path d="M54.0602 8.99003C54.0602 7.54003 54.0302 6.10006 54.0602 4.65006C54.1202 1.98006 56.0502 0.0100381 58.5602 3.80918e-05C61.0602 -0.00996191 63.0402 1.95003 63.0902 4.62003C63.1402 7.55003 63.1402 10.4801 63.0902 13.4101C63.0402 16.0701 61.0502 18.03 58.5402 18C56.0302 17.98 54.1202 16.01 54.0602 13.33C54.0302 11.88 54.0602 10.44 54.0602 8.99003Z" fill="#FDA802"/>
<path d="M31.4303 26.47C31.1103 28.44 30.2904 29.83 28.6404 30.63C26.9504 31.44 25.2103 31.3401 23.8403 30.0601C21.4503 27.8301 19.1204 25.52 16.8904 23.13C15.2604 21.39 15.4803 18.7 17.1803 17.05C18.8803 15.4 21.5503 15.28 23.2803 16.92C25.5703 19.09 27.8303 21.31 29.9703 23.63C30.6703 24.39 30.9603 25.51 31.4403 26.47H31.4303Z" fill="#FDA802"/>
<path d="M90.5496 31.3201C88.5996 31.0301 87.2296 30.18 86.4496 28.52C85.6496 26.82 85.7996 25.11 87.0796 23.74C89.2896 21.38 91.5796 19.1 93.9396 16.89C95.6296 15.31 98.2896 15.48 99.9496 17.1C101.62 18.73 101.88 21.37 100.3 23.09C98.0596 25.52 95.6996 27.85 93.2696 30.09C92.5796 30.73 91.4696 30.93 90.5496 31.33V31.3201Z" fill="#FDA802"/>
</svg>
