<svg width="46" height="81" viewBox="0 0 46 81" fill="none" xmlns="http://www.w3.org/2000/svg">
<path d="M18.8512 69.0416C16.9512 68.9016 15.1712 68.9115 13.4612 68.6215C5.91116 67.3115 0.381178 60.8315 0.171178 53.1715C0.111178 50.9015 1.55117 49.1815 3.63117 49.0515C5.81117 48.9115 7.62118 50.3615 7.64118 52.5615C7.70118 57.3915 11.4112 62.2716 18.7512 61.2816V44.1315C12.3812 44.5815 6.89115 42.7315 2.99115 37.3615C0.751155 34.2715 -0.218827 30.7815 0.041173 26.9615C0.361173 22.2115 2.42117 18.3415 6.10117 15.3515C9.77117 12.3715 14.0811 11.5516 18.8611 11.9116C18.8611 10.8816 18.8611 10.0015 18.8611 9.12154C18.8611 7.40154 18.8411 5.67149 18.8611 3.95149C18.8911 1.70149 20.4212 0.0615401 22.5112 0.00154006C24.6012 -0.0584599 26.3111 1.64156 26.3611 3.90156C26.4111 6.09156 26.3712 8.29152 26.3712 10.4815C26.3712 10.9015 26.3712 11.3215 26.3712 11.7215C28.3412 11.8815 30.1912 11.8815 31.9812 12.1915C39.3812 13.4915 45.0612 20.3915 44.9912 27.8615C44.9712 30.0215 43.4512 31.6615 41.4012 31.7315C39.2612 31.8015 37.6112 30.2715 37.4712 28.0715C37.1312 22.6915 33.7211 19.4516 28.3611 19.3916C27.7411 19.3916 27.1312 19.3916 26.4412 19.3916V36.6616C32.5012 36.2216 37.7612 37.8715 41.6812 42.7315C44.1812 45.8415 45.3712 49.4415 45.1912 53.4215C44.9712 58.2015 42.9912 62.1715 39.3012 65.2515C35.6012 68.3415 31.2412 69.2215 26.3712 68.8715C26.3712 69.4615 26.3712 69.9115 26.3712 70.3615C26.3712 72.5115 26.4011 74.6715 26.3611 76.8215C26.3211 79.1015 24.6512 80.8016 22.5612 80.7716C20.4412 80.7516 18.8711 79.0615 18.8611 76.7515C18.8411 74.2115 18.8611 71.6616 18.8611 69.0416H18.8512ZM18.7812 19.5115C14.2412 18.8515 10.6512 20.3516 8.72117 23.6516C6.98117 26.6216 7.18116 30.4116 9.25116 33.1516C11.3112 35.8616 14.4812 37.2015 18.7712 36.4415V19.5216L18.7812 19.5115ZM26.4512 44.2315V61.2616C30.5912 61.9216 34.0912 60.6515 36.0712 57.7015C38.0912 54.6915 38.2412 51.5116 36.4112 48.4016C34.1912 44.6416 30.6212 43.8015 26.4512 44.2315Z" fill="#BCB8B8"/>
</svg>
