<svg width="70" height="99" viewBox="0 0 70 99" fill="none" xmlns="http://www.w3.org/2000/svg">
<path d="M0 98.3234V84.8434H1.90002L6.21997 91.6633C7.21997 93.2433 8.00001 94.6633 8.64001 96.0433L8.67999 96.0233C8.51999 94.2233 8.47998 92.5834 8.47998 90.4834V84.8434H10.12V98.3234H8.35999L4.08002 91.4834C3.14002 89.9834 2.24 88.4434 1.56 86.9834L1.5 87.0033C1.6 88.7033 1.64001 90.3234 1.64001 92.5634V98.3234H0Z" fill="black"/>
<path d="M24.6804 91.4434C24.6804 96.0834 21.8603 98.5433 18.4203 98.5433C14.9803 98.5433 12.3604 95.7834 12.3604 91.7034C12.3604 87.4234 15.0204 84.6233 18.6204 84.6233C22.2204 84.6233 24.6804 87.4434 24.6804 91.4434ZM14.2203 91.6633C14.2203 94.5433 15.7804 97.1233 18.5204 97.1233C21.2604 97.1233 22.8403 94.5833 22.8403 91.5233C22.8403 88.8433 21.4403 86.0433 18.5403 86.0433C15.6403 86.0433 14.2203 88.7033 14.2203 91.6633Z" fill="black"/>
<path d="M36.3596 97.8833C35.7196 98.2033 34.4396 98.5233 32.7996 98.5233C28.9996 98.5233 26.1396 96.1234 26.1396 91.7034C26.1396 87.2834 28.9996 84.6233 33.1796 84.6233C34.8596 84.6233 35.9196 84.9834 36.3796 85.2234L35.9597 86.6433C35.2997 86.3233 34.3596 86.0834 33.2396 86.0834C30.0796 86.0834 27.9796 88.1033 27.9796 91.6433C27.9796 94.9433 29.8796 97.0634 33.1596 97.0634C34.2196 97.0634 35.2996 96.8433 35.9996 96.5033L36.3596 97.8833Z" fill="black"/>
<path d="M40.28 84.8434V90.4834H46.8V84.8434H48.5601V98.3234H46.8V92.0033H40.28V98.3234H38.54V84.8434H40.28Z" fill="black"/>
<path d="M58.5601 92.0033H53.3201V96.8633H59.16V98.3234H51.5801V84.8434H58.86V86.3033H53.3201V90.5634H58.5601V92.0033Z" fill="black"/>
<path d="M35.6099 65.4033C34.3699 65.2333 33.1199 65.1233 31.8899 64.8933C21.8299 63.0333 14.1299 57.7034 8.83986 48.9834C5.13986 42.8834 3.67989 36.1934 4.30989 29.0934C4.98989 21.4234 8.01991 14.7834 13.3299 9.20337C17.4199 4.90337 22.3299 1.92334 27.9999 0.17334C29.1099 -0.166661 30.0599 -0.0366263 30.8499 0.833374C31.5399 1.59337 31.6199 2.6633 31.0199 3.7533C29.7199 6.1133 28.6999 8.58339 28.1399 11.2234C27.1999 15.7034 27.4699 20.1034 28.9299 24.4434C30.4599 29.0134 33.0899 32.8534 36.7699 35.9534C40.5899 39.1734 44.9999 41.1133 49.9599 41.7533C55.5299 42.4833 60.7499 41.3533 65.6499 38.6433C67.0399 37.8733 68.2099 38.0233 69.0399 39.0533C69.2799 39.3533 69.4199 39.7534 69.6099 40.1034V40.9933C69.5699 41.0733 69.5299 41.1434 69.4999 41.2234C68.4799 44.7534 66.9199 48.0233 64.8299 51.0333C61.8299 55.3633 58.0299 58.8134 53.4199 61.3434C49.9399 63.2634 46.2299 64.5133 42.2799 65.0333C41.2099 65.1733 40.1299 65.2833 39.0499 65.4033H35.5999H35.6099ZM24.1899 6.99329C13.9499 12.2933 6.87991 24.4934 9.57991 37.7034C12.2399 50.7134 23.4399 60.0633 36.4899 60.5333C49.5599 61.0033 59.1899 52.4933 62.4999 45.3833C50.8299 48.6333 40.3499 46.4334 31.7399 37.8234C23.1299 29.2134 20.9299 18.7233 24.1899 6.99329Z" fill="url(#paint0_linear_2034_1841)"/>
<defs>
<linearGradient id="paint0_linear_2034_1841" x1="4.16989" y1="32.6933" x2="69.6099" y2="32.6933" gradientUnits="userSpaceOnUse">
<stop offset="0.27" stop-color="#0893D4"/>
<stop offset="1" stop-color="#3552D0"/>
</linearGradient>
</defs>
</svg>
