<svg width="884" height="161" viewBox="0 0 884 161" fill="none" xmlns="http://www.w3.org/2000/svg">
<path d="M822.11 0H60.95C27.2882 0 0 27.2882 0 60.95V99.2899C0 132.952 27.2882 160.24 60.95 160.24H822.11C855.772 160.24 883.06 132.952 883.06 99.2899V60.95C883.06 27.2882 855.772 0 822.11 0Z" fill="#F2F2F4"/>
<path d="M582.569 65.2603C584.149 70.0403 584.569 74.8702 583.549 79.8502C583.219 81.4502 582.819 83.0302 582.429 84.7102H583.769C591.469 84.7102 599.159 84.7602 606.859 84.6802C608.959 84.6602 610.489 85.2402 611.389 87.1902V88.9902C611.289 89.0902 611.139 89.1702 611.089 89.3002C610.389 90.9902 609.069 91.4902 607.329 91.4902C576.339 91.4702 545.349 91.4802 514.359 91.4802C509.509 91.4802 504.669 91.4802 499.819 91.4802C497.459 91.4802 495.929 90.1102 495.959 88.0402C495.989 86.0402 497.529 84.7102 499.829 84.7102C507.829 84.7102 515.829 84.6902 523.829 84.7302C524.789 84.7302 524.909 84.5402 524.629 83.6202C522.549 76.8202 522.739 70.1002 525.379 63.4702C525.809 63.7302 526.279 63.7502 526.769 63.7502C528.689 63.7502 530.619 63.7503 532.539 63.7703C532.329 64.2503 532.119 64.7302 531.919 65.2102C529.349 71.3602 529.359 77.5202 531.819 83.7102C532.129 84.4802 532.529 84.7302 533.379 84.7302C546.889 84.7002 560.399 84.7002 573.919 84.7302C574.829 84.7302 575.219 84.4502 575.549 83.6302C577.919 77.6002 577.929 71.5802 575.589 65.5502C577.539 65.5502 579.489 65.5502 581.429 65.5402C581.819 65.5402 582.269 65.6802 582.559 65.2502L582.569 65.2603Z" fill="#FDA802"/>
<path d="M582.569 65.2602C582.279 65.7002 581.829 65.5501 581.439 65.5501C579.489 65.5601 577.539 65.5501 575.599 65.5601C574.799 63.8201 573.919 62.1201 572.759 60.6101C567.009 53.1901 559.449 49.9801 550.139 51.1901C546.099 51.7101 542.419 53.3201 539.169 55.8501C536.389 58.0201 534.289 60.7402 532.569 63.7802C530.649 63.7802 528.719 63.7602 526.799 63.7602C526.309 63.7602 525.839 63.7401 525.409 63.4801C527.859 57.0701 532.099 52.1401 537.909 48.5801C554.249 38.5601 575.899 46.2301 582.329 64.2901C582.439 64.6001 582.499 64.9402 582.589 65.2602H582.569Z" fill="#FDA802"/>
<path d="M521.9 54.29C521.9 56.81 519.31 58.46 517.05 57.29C514.92 56.19 512.85 54.97 510.82 53.7C509.28 52.74 508.87 50.78 509.75 49.24C510.6 47.75 512.47 47.03 514.03 47.83C516.26 48.98 518.41 50.27 520.55 51.59C521.49 52.17 521.91 53.1601 521.91 54.2801L521.9 54.29Z" fill="#FDA802"/>
<path d="M594.65 47.5301C596.13 47.5401 597.41 48.46 597.86 49.8C598.34 51.2 597.93 52.7901 596.67 53.5901C594.55 54.9201 592.38 56.2001 590.16 57.3601C588.62 58.1601 586.73 57.4401 585.89 55.9501C585.07 54.4901 585.37 52.5301 586.79 51.6301C588.93 50.2601 591.18 49.04 593.4 47.8C593.78 47.59 594.25 47.49 594.66 47.54L594.65 47.5301Z" fill="#FDA802"/>
<path d="M570.599 39.43C570.589 38.77 570.799 38.1801 571.119 37.6201C572.179 35.7701 573.239 33.92 574.329 32.08C575.409 30.26 577.339 29.6901 579.039 30.6601C580.699 31.6101 581.199 33.62 580.169 35.45C579.089 37.37 577.999 39.29 576.859 41.17C576.019 42.56 574.449 43.1101 572.969 42.6401C571.559 42.2001 570.609 40.9 570.609 39.43H570.599Z" fill="#FDA802"/>
<path d="M532.919 42.7901C532.129 42.7701 531.139 42.2403 530.499 41.1603C529.329 39.2003 528.179 37.2402 527.089 35.2402C526.159 33.5402 526.729 31.5602 528.329 30.6502C529.959 29.7302 531.909 30.2102 532.919 31.8902C534.129 33.9102 535.309 35.9501 536.399 38.0401C537.539 40.2301 535.889 42.7801 532.929 42.7901H532.919Z" fill="#FDA802"/>
<path d="M550.299 30.5301C550.299 29.4401 550.279 28.3501 550.299 27.2601C550.349 25.3301 551.799 23.8701 553.639 23.8601C555.479 23.8401 556.999 25.3 557.029 27.21C557.069 29.46 557.069 31.7201 557.029 33.9701C556.999 35.9001 555.529 37.3601 553.689 37.3701C551.799 37.3901 550.329 35.9001 550.289 33.9101C550.269 32.7801 550.289 31.6601 550.289 30.5301H550.299Z" fill="#FDA802"/>
<path d="M509.639 77.95C508.549 77.95 507.469 77.97 506.379 77.95C504.409 77.9 502.929 76.41 502.959 74.53C502.989 72.7 504.449 71.24 506.369 71.21C508.619 71.18 510.869 71.17 513.109 71.21C515.019 71.24 516.509 72.74 516.469 74.57C516.429 76.21 515.189 77.92 513.129 77.95C511.969 77.97 510.809 77.95 509.649 77.95H509.639Z" fill="#FDA802"/>
<path d="M597.529 77.9502C596.479 77.9502 595.429 77.9702 594.379 77.9502C592.379 77.9102 590.899 76.4903 590.879 74.6003C590.859 72.7203 592.349 71.2202 594.319 71.2002C596.529 71.1702 598.739 71.1702 600.949 71.2002C602.929 71.2302 604.449 72.7203 604.379 74.6003C604.319 76.2903 603.019 77.9802 600.889 77.9502C599.769 77.9402 598.639 77.9502 597.519 77.9502H597.529Z" fill="#FDA802"/>
<path d="M523.28 115.3H519.18V113.82H529.16V115.3H525.04V127.3H523.28V115.3Z" fill="black"/>
<path d="M531.34 123.07L529.94 127.31H528.14L532.72 113.83H534.82L539.42 127.31H537.56L536.12 123.07H531.34ZM535.76 121.71L534.44 117.83C534.14 116.95 533.94 116.15 533.74 115.37H533.7C533.5 116.17 533.28 116.99 533.02 117.81L531.7 121.71H535.76Z" fill="black"/>
<path d="M541.399 114C542.279 113.82 543.539 113.72 544.739 113.72C546.599 113.72 547.799 114.06 548.639 114.82C549.319 115.42 549.699 116.34 549.699 117.38C549.699 119.16 548.579 120.34 547.159 120.82V120.88C548.199 121.24 548.819 122.2 549.139 123.6C549.579 125.48 549.899 126.78 550.179 127.3H548.379C548.159 126.92 547.859 125.76 547.479 124.08C547.079 122.22 546.359 121.52 544.779 121.46H543.139V127.3H541.399V114ZM543.139 120.14H544.919C546.779 120.14 547.959 119.12 547.959 117.58C547.959 115.84 546.699 115.08 544.859 115.06C544.019 115.06 543.419 115.14 543.139 115.22V120.14Z" fill="black"/>
<path d="M552.159 114C553.219 113.84 554.479 113.72 555.859 113.72C558.359 113.72 560.139 114.3 561.319 115.4C562.519 116.5 563.219 118.06 563.219 120.24C563.219 122.42 562.539 124.24 561.279 125.48C560.019 126.74 557.939 127.42 555.319 127.42C554.079 127.42 553.039 127.36 552.159 127.26V114ZM553.899 125.92C554.339 126 554.979 126.02 555.659 126.02C559.379 126.02 561.399 123.94 561.399 120.3C561.419 117.12 559.619 115.1 555.939 115.1C555.039 115.1 554.359 115.18 553.899 115.28V125.92Z" fill="black"/>
<path d="M572.459 120.99H567.219V125.85H573.06V127.31H565.479V113.83H572.759V115.29H567.219V119.55H572.459V120.99Z" fill="black"/>
<path d="M702.91 124.75V111.27H704.81L709.13 118.09C710.13 119.67 710.91 121.09 711.55 122.47L711.59 122.45C711.43 120.65 711.39 119.01 711.39 116.91V111.27H713.03V124.75H711.27L706.99 117.91C706.05 116.41 705.15 114.87 704.47 113.41L704.41 113.43C704.51 115.13 704.55 116.75 704.55 118.99V124.75H702.91Z" fill="black"/>
<path d="M727.591 117.87C727.591 122.51 724.771 124.97 721.331 124.97C717.891 124.97 715.271 122.21 715.271 118.13C715.271 113.85 717.931 111.05 721.531 111.05C725.131 111.05 727.591 113.87 727.591 117.87ZM717.13 118.09C717.13 120.97 718.691 123.55 721.431 123.55C724.171 123.55 725.75 121.01 725.75 117.95C725.75 115.27 724.351 112.47 721.451 112.47C718.551 112.47 717.13 115.13 717.13 118.09Z" fill="black"/>
<path d="M739.27 124.31C738.63 124.63 737.35 124.95 735.71 124.95C731.91 124.95 729.05 122.55 729.05 118.13C729.05 113.71 731.91 111.05 736.09 111.05C737.77 111.05 738.83 111.41 739.29 111.65L738.87 113.07C738.21 112.75 737.27 112.51 736.15 112.51C732.99 112.51 730.89 114.53 730.89 118.07C730.89 121.37 732.79 123.49 736.07 123.49C737.13 123.49 738.21 123.27 738.91 122.93L739.27 124.31Z" fill="black"/>
<path d="M743.19 111.27V116.91H749.71V111.27H751.47V124.75H749.71V118.43H743.19V124.75H741.45V111.27H743.19Z" fill="black"/>
<path d="M761.47 118.43H756.23V123.29H762.07V124.75H754.49V111.27H761.77V112.73H756.23V116.99H761.47V118.43Z" fill="black"/>
<path d="M738.52 91.8301C737.28 91.6601 736.03 91.5501 734.8 91.3201C724.74 89.4601 717.04 84.1302 711.75 75.4102C708.05 69.3102 706.59 62.6201 707.22 55.5201C707.9 47.8501 710.93 41.2101 716.24 35.6301C720.33 31.3301 725.24 28.3501 730.91 26.6001C732.02 26.2601 732.97 26.3901 733.76 27.2601C734.45 28.0201 734.53 29.0901 733.93 30.1801C732.63 32.5401 731.61 35.0101 731.05 37.6501C730.11 42.1301 730.38 46.5301 731.84 50.8701C733.37 55.4401 736 59.2801 739.68 62.3801C743.5 65.6001 747.91 67.5401 752.87 68.1801C758.44 68.9101 763.66 67.7801 768.56 65.0701C769.95 64.3001 771.12 64.4501 771.95 65.4801C772.19 65.7801 772.33 66.1802 772.52 66.5302V67.42C772.48 67.5 772.44 67.5701 772.41 67.6501C771.39 71.1801 769.83 74.4501 767.74 77.4601C764.74 81.7901 760.94 85.2401 756.33 87.7701C752.85 89.6901 749.14 90.9401 745.19 91.4601C744.12 91.6001 743.04 91.7101 741.96 91.8301H738.51H738.52ZM727.1 33.42C716.86 38.72 709.79 50.9201 712.49 64.1301C715.15 77.1401 726.35 86.4901 739.4 86.9601C752.47 87.4301 762.1 78.9201 765.41 71.8101C753.74 75.0601 743.26 72.8601 734.65 64.2501C726.04 55.6401 723.84 45.15 727.1 33.42Z" fill="url(#paint0_linear_2034_1821)"/>
<path d="M303.61 119.79C303.51 117.91 303.39 115.65 303.41 113.97H303.35C302.89 115.55 302.33 117.23 301.65 119.09L299.27 125.63H297.95L295.77 119.21C295.13 117.31 294.59 115.57 294.21 113.97H294.17C294.13 115.65 294.03 117.91 293.91 119.93L293.55 125.71H291.89L292.83 112.23H295.05L297.35 118.75C297.91 120.41 298.37 121.89 298.71 123.29H298.77C299.11 121.93 299.59 120.45 300.19 118.75L302.59 112.23H304.81L305.65 125.71H303.95L303.61 119.79Z" fill="black"/>
<path d="M315.31 119.39H310.07V124.25H315.91V125.71H308.33V112.23H315.61V113.69H310.07V117.95H315.31V119.39Z" fill="black"/>
<path d="M318.17 112.41C319.23 112.25 320.49 112.13 321.87 112.13C324.37 112.13 326.15 112.71 327.33 113.81C328.53 114.91 329.23 116.47 329.23 118.65C329.23 120.83 328.55 122.65 327.29 123.89C326.03 125.15 323.95 125.83 321.33 125.83C320.09 125.83 319.05 125.77 318.17 125.67V112.41ZM319.91 124.33C320.35 124.41 320.99 124.43 321.67 124.43C325.39 124.43 327.41 122.35 327.41 118.71C327.43 115.53 325.63 113.51 321.95 113.51C321.05 113.51 320.37 113.59 319.91 113.69V124.33Z" fill="black"/>
<path d="M333.229 112.23V125.71H331.489V112.23H333.229Z" fill="black"/>
<path d="M347.79 118.83C347.79 123.47 344.97 125.93 341.53 125.93C338.09 125.93 335.47 123.17 335.47 119.09C335.47 114.81 338.13 112.01 341.73 112.01C345.33 112.01 347.79 114.83 347.79 118.83ZM337.33 119.05C337.33 121.93 338.89 124.51 341.63 124.51C344.37 124.51 345.95 121.97 345.95 118.91C345.95 116.23 344.55 113.43 341.65 113.43C338.75 113.43 337.33 116.09 337.33 119.05Z" fill="black"/>
<path d="M354.29 112.41C355.35 112.25 356.61 112.13 357.99 112.13C360.49 112.13 362.27 112.71 363.45 113.81C364.65 114.91 365.35 116.47 365.35 118.65C365.35 120.83 364.67 122.65 363.41 123.89C362.15 125.15 360.07 125.83 357.45 125.83C356.21 125.83 355.17 125.77 354.29 125.67V112.41ZM356.03 124.33C356.47 124.41 357.11 124.43 357.79 124.43C361.51 124.43 363.53 122.35 363.53 118.71C363.55 115.53 361.75 113.51 358.07 113.51C357.17 113.51 356.49 113.59 356.03 113.69V124.33Z" fill="black"/>
<path d="M371.41 109.17L368.85 111.51H367.43L369.27 109.17H371.41ZM369.35 112.23V125.71H367.61V112.23H369.35Z" fill="black"/>
<path d="M374.57 121.47L373.17 125.71H371.37L375.95 112.23H378.05L382.65 125.71H380.79L379.35 121.47H374.57ZM378.99 120.11L377.67 116.23C377.37 115.35 377.17 114.55 376.97 113.77H376.93C376.73 114.57 376.51 115.39 376.25 116.21L374.93 120.11H378.99Z" fill="black"/>
<path d="M288.82 82.99C289.76 80.31 291.7 79.29 294.48 79.41C297.11 79.52 299.74 79.39 302.37 79.46C304.52 79.51 306.15 80.83 306.67 82.76C307.17 84.64 306.49 86.65 304.83 87.64C304.08 88.09 303.13 88.3999 302.26 88.4199C299.33 88.5199 296.39 88.46 293.45 88.45C291.08 88.45 289.72 87.0499 288.81 85.0499V82.99H288.82Z" fill="#FDA802"/>
<path d="M405.969 84.8199C405.079 87.5299 403.159 88.58 400.379 88.48C397.719 88.38 395.049 88.4999 392.379 88.4399C390.039 88.3799 388.279 86.7199 387.969 84.4299C387.699 82.4299 388.989 80.36 390.979 79.72C391.619 79.52 392.319 79.46 392.999 79.45C395.439 79.42 397.879 79.52 400.309 79.41C403.089 79.29 405.019 80.31 405.959 82.99V84.8199H405.969Z" fill="#FDA802"/>
<path d="M347.339 88.4499C338.609 88.4499 329.879 88.4499 321.139 88.4499C317.529 88.4499 315.759 86.6199 315.859 82.9899C316.259 67.8499 327.809 54.9299 342.839 52.8099C360.409 50.3299 376.399 62.4599 378.689 80.0299C378.839 81.1999 378.909 82.3799 378.939 83.5599C378.999 86.4999 377.079 88.4399 374.119 88.4499C368.859 88.4699 363.599 88.4499 358.329 88.4499H347.35H347.339ZM325.459 79.3499H369.32C368.05 71.0299 359.729 61.3899 347.219 61.4599C335.239 61.5199 326.759 70.8199 325.459 79.3499Z" fill="#FDA802"/>
<path d="M342.87 34.45C342.87 33 342.84 31.56 342.87 30.11C342.93 27.44 344.86 25.47 347.37 25.46C349.87 25.45 351.85 27.41 351.9 30.08C351.95 33.01 351.95 35.94 351.9 38.87C351.85 41.53 349.86 43.49 347.35 43.46C344.84 43.44 342.93 41.47 342.87 38.79C342.84 37.34 342.87 35.9 342.87 34.45Z" fill="#FDA802"/>
<path d="M320.24 51.9299C319.92 53.8999 319.1 55.29 317.45 56.09C315.76 56.9 314.02 56.8 312.65 55.52C310.26 53.29 307.93 50.98 305.7 48.59C304.07 46.85 304.29 44.16 305.99 42.51C307.69 40.86 310.36 40.74 312.09 42.38C314.38 44.55 316.64 46.77 318.78 49.09C319.48 49.85 319.77 50.9699 320.25 51.9299H320.24Z" fill="#FDA802"/>
<path d="M379.359 56.78C377.409 56.49 376.039 55.64 375.259 53.98C374.459 52.28 374.609 50.5699 375.889 49.1999C378.099 46.8399 380.389 44.56 382.749 42.35C384.439 40.77 387.099 40.9399 388.759 42.5599C390.429 44.1899 390.689 46.8299 389.109 48.5499C386.869 50.9799 384.509 53.3099 382.079 55.5499C381.389 56.1899 380.279 56.3899 379.359 56.7899V56.78Z" fill="#FDA802"/>
<path d="M117.73 127.36C117.63 125.48 117.51 123.22 117.53 121.54H117.47C117.01 123.12 116.45 124.8 115.77 126.66L113.39 133.2H112.07L109.89 126.78C109.25 124.88 108.71 123.14 108.33 121.54H108.29C108.25 123.22 108.15 125.48 108.03 127.5L107.67 133.28H106.01L106.95 119.8H109.17L111.47 126.32C112.03 127.98 112.49 129.46 112.83 130.86H112.89C113.23 129.5 113.71 128.02 114.31 126.32L116.71 119.8H118.93L119.77 133.28H118.07L117.73 127.36Z" fill="black"/>
<path d="M124.429 129.04L123.029 133.28H121.229L125.809 119.8H127.91L132.509 133.28H130.649L129.209 129.04H124.429ZM128.85 127.68L127.529 123.8C127.229 122.92 127.029 122.12 126.829 121.34H126.789C126.589 122.14 126.369 122.96 126.109 123.78L124.789 127.68H128.85Z" fill="black"/>
<path d="M134.479 133.28V119.8H136.38L140.699 126.62C141.699 128.2 142.479 129.62 143.119 131L143.16 130.98C143 129.18 142.959 127.54 142.959 125.44V119.8H144.6V133.28H142.839L138.559 126.44C137.619 124.94 136.719 123.4 136.039 121.94L135.979 121.96C136.079 123.66 136.119 125.28 136.119 127.52V133.28H134.479ZM137.16 118.98C137.12 117.76 137.64 116.94 138.52 116.94C138.96 116.94 139.279 117.12 139.699 117.34C140.019 117.52 140.34 117.7 140.66 117.7C140.96 117.7 141.139 117.56 141.199 116.92H142.119C142.139 118.18 141.699 118.86 140.779 118.86C140.359 118.86 139.999 118.7 139.559 118.48C139.179 118.28 138.899 118.1 138.619 118.1C138.299 118.1 138.14 118.44 138.1 118.98H137.16Z" fill="black"/>
<path d="M149.82 129.04L148.42 133.28H146.62L151.2 119.8H153.3L157.9 133.28H156.04L154.6 129.04H149.82ZM154.24 127.68L152.92 123.8C152.62 122.92 152.42 122.12 152.22 121.34H152.18C151.98 122.14 151.76 122.96 151.5 123.78L150.18 127.68H154.24Z" fill="black"/>
<path d="M159.88 133.28V119.8H161.78L166.1 126.62C167.1 128.2 167.88 129.62 168.52 131L168.56 130.98C168.4 129.18 168.36 127.54 168.36 125.44V119.8H170V133.28H168.24L163.96 126.44C163.02 124.94 162.12 123.4 161.44 121.94L161.38 121.96C161.48 123.66 161.52 125.28 161.52 127.52V133.28H159.88Z" fill="black"/>
<path d="M175.22 129.04L173.82 133.28H172.02L176.6 119.8H178.7L183.3 133.28H181.44L180 129.04H175.22ZM179.64 127.68L178.32 123.8C178.02 122.92 177.82 122.12 177.62 121.34H177.58C177.38 122.14 177.16 122.96 176.9 123.78L175.58 127.68H179.64Z" fill="black"/>
<path d="M125.03 61.3401C125.06 47.6301 136.27 36.4802 149.98 36.5302C163.65 36.5802 174.76 47.7601 174.74 61.4401C174.71 75.1501 163.5 86.3002 149.79 86.2502C136.12 86.2002 125.01 75.0201 125.03 61.3401ZM149.91 42.7502C139.63 42.7402 131.25 51.1002 131.24 61.3702C131.23 71.6502 139.59 80.0301 149.85 80.0401C160.13 80.0501 168.51 71.6901 168.52 61.4201C168.53 51.1401 160.18 42.7602 149.91 42.7502Z" fill="#FDA802"/>
<path d="M152.99 24.0701C152.99 25.1101 153.01 26.1401 152.99 27.1801C152.95 28.9801 151.57 30.3401 149.85 30.3201C148.16 30.3001 146.82 28.9501 146.79 27.1901C146.76 25.1201 146.76 23.0501 146.79 20.9801C146.82 19.2301 148.18 17.9001 149.88 17.8901C151.57 17.8901 152.94 19.2201 152.99 20.9701C153.02 22.0001 152.99 23.0401 152.99 24.0801V24.0701Z" fill="#FDA802"/>
<path d="M112.7 58.2902C113.7 58.2902 114.71 58.2702 115.71 58.2902C117.46 58.3302 118.8 59.6803 118.81 61.3703C118.81 63.0603 117.49 64.4503 115.75 64.4903C113.65 64.5303 111.54 64.5303 109.44 64.4903C107.7 64.4603 106.37 63.0503 106.39 61.3603C106.41 59.6603 107.74 58.3302 109.5 58.2902C110.57 58.2602 111.63 58.2902 112.7 58.2902Z" fill="#FDA802"/>
<path d="M187.16 58.2901C188.2 58.2901 189.23 58.2701 190.27 58.2901C192.02 58.3301 193.37 59.6702 193.39 61.3602C193.41 63.0902 192.05 64.4702 190.25 64.5002C188.21 64.5302 186.17 64.5302 184.14 64.5002C182.33 64.4802 180.97 63.1102 180.98 61.3802C180.98 59.6502 182.34 58.3201 184.17 58.2901C185.17 58.2701 186.18 58.2901 187.18 58.2901H187.16Z" fill="#FDA802"/>
<path d="M146.78 98.6302C146.78 97.5902 146.75 96.5602 146.78 95.5202C146.83 93.7702 148.2 92.4501 149.9 92.4601C151.55 92.4701 152.93 93.7801 152.97 95.4701C153.02 97.6001 153.02 99.7402 152.97 101.88C152.93 103.57 151.55 104.88 149.9 104.89C148.21 104.9 146.83 103.57 146.78 101.83C146.75 100.76 146.78 99.6902 146.78 98.6302Z" fill="#FDA802"/>
<path d="M118.2 33.1902C118.27 31.5202 118.87 30.5603 120.02 30.0303C121.17 29.4903 122.35 29.6003 123.28 30.4603C124.71 31.7703 126.08 33.1502 127.4 34.5702C128.49 35.7502 128.36 37.5703 127.24 38.7103C126.09 39.8803 124.24 40.0103 123.03 38.8903C121.63 37.6003 120.27 36.2503 119 34.8303C118.54 34.3203 118.37 33.5402 118.21 33.1902H118.2Z" fill="#FDA802"/>
<path d="M181.57 33.29C181.38 33.65 181.12 34.4401 180.61 35.0101C179.45 36.3101 178.18 37.52 176.92 38.73C175.63 39.96 173.77 39.94 172.56 38.73C171.34 37.52 171.3 35.65 172.53 34.37C173.76 33.08 175.02 31.83 176.3 30.6C177.28 29.66 178.47 29.4501 179.71 30.0101C180.91 30.5401 181.51 31.53 181.57 33.29Z" fill="#FDA802"/>
<path d="M118.21 89.5001C118.39 89.1501 118.62 88.3801 119.1 87.8401C120.29 86.5201 121.57 85.28 122.86 84.05C124.14 82.82 126.01 82.86 127.22 84.07C128.43 85.28 128.46 87.15 127.23 88.43C126 89.72 124.74 90.9801 123.46 92.2001C122.48 93.1401 121.29 93.3401 120.05 92.7801C118.86 92.2301 118.26 91.2501 118.21 89.5101V89.5001Z" fill="#FDA802"/>
<path d="M181.57 89.5601C181.51 91.2101 180.95 92.1801 179.8 92.7401C178.61 93.3201 177.42 93.2101 176.46 92.3201C175.06 91.0301 173.71 89.6802 172.41 88.2802C171.28 87.0602 171.4 85.2201 172.56 84.0701C173.72 82.9201 175.55 82.8101 176.77 83.9401C178.14 85.2201 179.48 86.5401 180.74 87.9301C181.21 88.4501 181.4 89.2101 181.57 89.5701V89.5601Z" fill="#FDA802"/>
<defs>
<linearGradient id="paint0_linear_2034_1821" x1="707.08" y1="59.1201" x2="772.52" y2="59.1201" gradientUnits="userSpaceOnUse">
<stop offset="0.27" stop-color="#0893D4"/>
<stop offset="1" stop-color="#3552D0"/>
</linearGradient>
</defs>
</svg>
