<svg width="116" height="104" viewBox="0 0 116 104" fill="none" xmlns="http://www.w3.org/2000/svg">
<path d="M86.6104 41.4004C88.1904 46.1804 88.6105 51.0104 87.5905 55.9904C87.2605 57.5904 86.8605 59.1703 86.4705 60.8503H87.8104C95.5104 60.8503 103.2 60.9003 110.9 60.8203C113 60.8003 114.53 61.3803 115.43 63.3303V65.1304C115.33 65.2304 115.18 65.3103 115.13 65.4403C114.43 67.1303 113.11 67.6304 111.37 67.6304C80.3804 67.6104 49.3905 67.6204 18.4005 67.6204C13.5505 67.6204 8.71042 67.6204 3.86042 67.6204C1.50042 67.6204 -0.0295667 66.2503 0.000433347 64.1803C0.0304333 62.1803 1.57043 60.8503 3.87043 60.8503C11.8704 60.8503 19.8704 60.8304 27.8704 60.8704C28.8304 60.8704 28.9504 60.6804 28.6704 59.7604C26.5904 52.9604 26.7804 46.2404 29.4204 39.6104C29.8504 39.8704 30.3204 39.8904 30.8104 39.8904C32.7304 39.8904 34.6605 39.8904 36.5805 39.9104C36.3705 40.3904 36.1605 40.8703 35.9605 41.3503C33.3905 47.5003 33.4004 53.6603 35.8604 59.8503C36.1704 60.6203 36.5704 60.8704 37.4204 60.8704C50.9304 60.8404 64.4405 60.8404 77.9605 60.8704C78.8705 60.8704 79.2605 60.5904 79.5905 59.7704C81.9605 53.7404 81.9704 47.7203 79.6304 41.6903C81.5804 41.6903 83.5305 41.6903 85.4705 41.6803C85.8605 41.6803 86.3105 41.8204 86.6005 41.3904L86.6104 41.4004Z" fill="#FDA802"/>
<path d="M86.6102 41.4003C86.3202 41.8403 85.8702 41.6902 85.4802 41.6902C83.5302 41.7002 81.5802 41.6902 79.6402 41.7002C78.8402 39.9602 77.9602 38.2603 76.8002 36.7503C71.0502 29.3303 63.4902 26.1202 54.1802 27.3302C50.1402 27.8502 46.4602 29.4603 43.2102 31.9903C40.4302 34.1603 38.3302 36.8803 36.6102 39.9203C34.6902 39.9203 32.7602 39.9003 30.8402 39.9003C30.3502 39.9003 29.8802 39.8803 29.4502 39.6203C31.9002 33.2103 36.1402 28.2803 41.9502 24.7203C58.2902 14.7003 79.9402 22.3702 86.3702 40.4302C86.4802 40.7402 86.5402 41.0803 86.6302 41.4003H86.6102Z" fill="#FDA802"/>
<path d="M25.9408 30.4301C25.9408 32.9501 23.3508 34.6001 21.0908 33.4301C18.9608 32.3301 16.8908 31.1101 14.8608 29.8401C13.3208 28.8801 12.9108 26.9202 13.7908 25.3802C14.6408 23.8902 16.5108 23.1701 18.0708 23.9701C20.3008 25.1201 22.4508 26.4102 24.5908 27.7302C25.5308 28.3102 25.9508 29.3002 25.9508 30.4202L25.9408 30.4301Z" fill="#FDA802"/>
<path d="M98.6907 23.6703C100.171 23.6803 101.451 24.6002 101.901 25.9402C102.381 27.3402 101.971 28.9302 100.711 29.7302C98.5908 31.0602 96.4207 32.3402 94.2007 33.5002C92.6607 34.3002 90.7707 33.5802 89.9307 32.0902C89.1107 30.6302 89.4108 28.6703 90.8308 27.7703C92.9708 26.4003 95.2207 25.1802 97.4407 23.9402C97.8207 23.7302 98.2907 23.6302 98.7007 23.6802L98.6907 23.6703Z" fill="#FDA802"/>
<path d="M74.64 15.5702C74.63 14.9102 74.84 14.3202 75.16 13.7602C76.22 11.9102 77.28 10.0602 78.37 8.22018C79.45 6.40018 81.38 5.83026 83.08 6.80026C84.74 7.75026 85.24 9.76017 84.21 11.5902C83.13 13.5102 82.04 15.4301 80.9 17.3101C80.06 18.7001 78.49 19.2502 77.01 18.7802C75.6 18.3402 74.65 17.0402 74.65 15.5702H74.64Z" fill="#FDA802"/>
<path d="M36.9602 18.9303C36.1702 18.9103 35.1802 18.3804 34.5402 17.3004C33.3702 15.3404 32.2202 13.3803 31.1302 11.3803C30.2002 9.68034 30.7702 7.70038 32.3702 6.79038C34.0002 5.87038 35.9502 6.35037 36.9602 8.03037C38.1702 10.0504 39.3502 12.0903 40.4402 14.1803C41.5802 16.3703 39.9302 18.9203 36.9702 18.9303H36.9602Z" fill="#FDA802"/>
<path d="M54.3402 6.67025C54.3402 5.58025 54.3202 4.49023 54.3402 3.40023C54.3902 1.47023 55.8402 0.010203 57.6802 0.000203025C59.5202 -0.019797 61.0402 1.44018 61.0702 3.35018C61.1102 5.60018 61.1102 7.86019 61.0702 10.1102C61.0402 12.0402 59.5701 13.5002 57.7301 13.5102C55.8401 13.5302 54.3702 12.0403 54.3302 10.0503C54.3102 8.92025 54.3302 7.80025 54.3302 6.67025H54.3402Z" fill="#FDA802"/>
<path d="M13.6804 54.0901C12.5904 54.0901 11.5104 54.1101 10.4204 54.0901C8.45043 54.0401 6.97045 52.5502 7.00045 50.6702C7.03045 48.8402 8.49048 47.3801 10.4105 47.3501C12.6605 47.3201 14.9105 47.3101 17.1505 47.3501C19.0605 47.3801 20.5505 48.8801 20.5105 50.7101C20.4705 52.3501 19.2304 54.0601 17.1704 54.0901C16.0104 54.1101 14.8505 54.0901 13.6905 54.0901H13.6804Z" fill="#FDA802"/>
<path d="M101.57 54.0904C100.52 54.0904 99.4701 54.1104 98.4201 54.0904C96.4201 54.0504 94.9401 52.6304 94.9201 50.7404C94.9001 48.8604 96.3901 47.3604 98.3601 47.3404C100.57 47.3104 102.78 47.3104 104.99 47.3404C106.97 47.3704 108.49 48.8604 108.42 50.7404C108.36 52.4304 107.06 54.1204 104.93 54.0904C103.81 54.0804 102.68 54.0904 101.56 54.0904H101.57Z" fill="#FDA802"/>
<path d="M27.3207 91.4402H23.2207V89.9602H33.2007V91.4402H29.0807V103.44H27.3207V91.4402Z" fill="black"/>
<path d="M35.3807 99.2102L33.9807 103.45H32.1807L36.7607 89.9702H38.8607L43.4607 103.45H41.6007L40.1607 99.2102H35.3807ZM39.8007 97.8502L38.4807 93.9702C38.1807 93.0902 37.9807 92.2903 37.7807 91.5103H37.7407C37.5407 92.3103 37.3207 93.1302 37.0607 93.9502L35.7407 97.8502H39.8007Z" fill="black"/>
<path d="M45.4404 90.1403C46.3204 89.9603 47.5805 89.8602 48.7805 89.8602C50.6405 89.8602 51.8404 90.2002 52.6804 90.9602C53.3604 91.5602 53.7404 92.4803 53.7404 93.5203C53.7404 95.3003 52.6204 96.4802 51.2004 96.9602V97.0203C52.2404 97.3803 52.8604 98.3402 53.1804 99.7402C53.6204 101.62 53.9405 102.92 54.2205 103.44H52.4204C52.2004 103.06 51.9004 101.9 51.5204 100.22C51.1204 98.3602 50.4004 97.6602 48.8204 97.6002H47.1804V103.44H45.4404V90.1403ZM47.1804 96.2803H48.9604C50.8204 96.2803 52.0004 95.2602 52.0004 93.7202C52.0004 91.9802 50.7405 91.2202 48.9005 91.2002C48.0605 91.2002 47.4604 91.2802 47.1804 91.3602V96.2803Z" fill="black"/>
<path d="M56.2002 90.1403C57.2602 89.9803 58.5202 89.8602 59.9002 89.8602C62.4002 89.8602 64.1802 90.4403 65.3602 91.5403C66.5602 92.6403 67.2602 94.2002 67.2602 96.3802C67.2602 98.5602 66.5802 100.38 65.3202 101.62C64.0602 102.88 61.9802 103.56 59.3602 103.56C58.1202 103.56 57.0802 103.5 56.2002 103.4V90.1403ZM57.9402 102.06C58.3802 102.14 59.0202 102.16 59.7002 102.16C63.4202 102.16 65.4402 100.08 65.4402 96.4402C65.4602 93.2602 63.6602 91.2402 59.9802 91.2402C59.0802 91.2402 58.4002 91.3203 57.9402 91.4203V102.06Z" fill="black"/>
<path d="M76.5005 97.1302H71.2605V101.99H77.1005V103.45H69.5205V89.9702H76.8005V91.4302H71.2605V95.6902H76.5005V97.1302Z" fill="black"/>
</svg>
