<svg width="100" height="100" viewBox="0 0 100 100" fill="none" xmlns="http://www.w3.org/2000/svg">
<path d="M49.7 38.6201C45.39 38.6201 41.89 42.1201 41.89 46.4301C41.89 50.7401 45.39 54.2401 49.7 54.2401C54.01 54.2401 57.51 50.7401 57.51 46.4301C57.51 42.1201 54.01 38.6201 49.7 38.6201Z" fill="#BCB8B8"/>
<path d="M97.19 33.7899C94.98 31.5799 92.78 29.3599 90.5 27.0699C87.4 29.9599 83.78 31.2499 79.6 30.6899C76.44 30.2699 73.82 28.7999 71.7 26.4299C67.92 22.1999 66.89 14.6199 72.28 8.80994C71.58 8.12994 70.85 7.45 70.16 6.75C67.95 4.51 65.75 2.25 63.54 0H63.35C63.16 0.21 62.97 0.439893 62.77 0.639893C42.22 21.1999 21.67 41.7699 1.10999 62.3199C0.829985 62.5999 0.39 62.73 0 62.95C1.81 64.76 3.26998 66.2099 4.72998 67.6699C6.17998 69.1199 7.64002 70.5799 9.08002 72.0299C15.09 66.5099 22.62 67.8999 26.6 71.4199C28.8 73.3699 30.27 75.7499 30.81 78.6399C31.64 83.0899 30.41 86.9799 27.44 90.1799C30.42 93.1799 33.33 96.1 36.41 99.2C36.59 98.94 36.76 98.61 37 98.36C57.54 77.79 78.09 57.2299 98.65 36.6699C98.88 36.4399 99.12 36.2399 99.36 36.0199V35.83C98.64 35.15 97.9 34.4899 97.2 33.7899H97.19ZM49.69 67.09C46.36 62.9 41.1 59.38 37.93 54.84C36.39 52.63 35.35 50.1899 35.26 47.2999C35.05 40.7299 39.51 34.18 45.97 32.51C47.18 32.2 48.44 32.06 49.69 32.1C56.09 32.3 61.39 36.1099 63.39 42.2899C67.04 53.5599 55.58 59.62 49.69 67.08V67.09Z" fill="#BCB8B8"/>
</svg>
