<svg width="83" height="83" viewBox="0 0 83 83" fill="none" xmlns="http://www.w3.org/2000/svg">
<path d="M21.7216 43.0885C32.8816 53.5385 49.7216 53.5586 61.0516 43.0186C62.9216 44.2786 64.9216 45.4685 66.7416 46.8785C71.3216 50.4185 75.0016 54.7385 77.7816 59.8385C79.9816 63.8685 81.4516 68.1686 82.2416 72.6686C82.5716 74.5586 82.5116 76.5185 82.6816 78.4385C82.7716 79.4685 82.9316 80.4585 82.2216 81.3685C81.5016 82.2885 80.6316 82.7986 79.4316 82.7986C58.8516 82.7986 38.2816 82.7986 17.7016 82.7986C12.8216 82.7986 7.94166 82.7986 3.06166 82.7986C1.42166 82.7986 0.0616074 81.3885 0.0116074 79.7585C-0.138393 73.7885 1.17161 68.1385 3.58161 62.6985C5.29161 58.8485 7.58161 55.4085 10.3316 52.2185C13.5616 48.4785 17.3916 45.5385 21.7016 43.0985L21.7216 43.0885Z" fill="#BCB8B8"/>
<path d="M41.1217 44.5384C29.0217 44.5084 19.8917 34.6983 19.1617 24.0683C18.1717 9.60833 29.5017 0.828347 38.9817 0.0883468C45.4217 -0.411653 51.1517 1.18834 56.0417 5.45834C60.4317 9.28834 62.9917 14.1283 63.5417 19.9583C64.1617 26.5383 62.1317 32.2584 57.7017 37.1184C53.2617 41.9884 46.9917 44.6984 41.1217 44.5284V44.5384Z" fill="#BCB8B8"/>
</svg>
